
<global>
ampeg_attack=0.005
ampeg_decay=1.8
ampeg_release=1.8
ampeg_sustain=0
</global>

<group>
group_label=Group

<region>
end=76799
fade_out=74299
hikey=G#2
hivel=42
lokey=G2
lovel=0
offset=1764
pitch_keycenter=G#2
sample=Basses_bartok_PP_G#3.opus
</region>

<region>
end=76799
fade_out=74299
hikey=G#1
hivel=42
lokey=G1
lovel=0
offset=1196
pitch_keycenter=G#1
sample=Basses_bartok_PP_G#2.opus
</region>

<region>
end=268799
fade_out=266299
hikey=C4
hivel=42
lokey=F3
lovel=0
pitch_keycenter=F#3
sample=Basses_bartok_PP_F#4.opus
</region>

<region>
end=76799
fade_out=74299
hikey=F#2
hivel=42
lokey=F2
lovel=0
offset=754
pitch_keycenter=F#2
sample=Basses_bartok_PP_F#3.opus
</region>

<region>
end=76799
fade_out=74299
hikey=F#1
hivel=42
lokey=F1
lovel=0
pitch_keycenter=F#1
sample=Basses_bartok_PP_F#2.opus
</region>

<region>
end=76799
fade_out=74299
hikey=E3
hivel=42
lokey=D#3
lovel=0
pitch_keycenter=E3
sample=Basses_bartok_PP_E4.opus
</region>

<region>
end=76799
fade_out=74299
hikey=E2
hivel=42
lokey=D#2
lovel=0
offset=2431
pitch_keycenter=E2
sample=Basses_bartok_PP_E3.opus
</region>

<region>
end=76799
fade_out=74299
hikey=E1
hivel=42
lokey=D#1
lovel=0
pitch_keycenter=E1
sample=Basses_bartok_PP_E2.opus
</region>

<region>
end=76799
fade_out=74299
hikey=D3
hivel=42
lokey=C#3
lovel=0
pitch_keycenter=D3
sample=Basses_bartok_PP_D4.opus
</region>

<region>
end=76799
fade_out=74299
hikey=D2
hivel=42
lokey=C#2
lovel=0
offset=2165
pitch_keycenter=D2
sample=Basses_bartok_PP_D3.opus
</region>

<region>
end=76799
fade_out=74299
hikey=D1
hivel=42
lokey=C#1
lovel=0
offset=126
pitch_keycenter=D1
sample=Basses_bartok_PP_D2.opus
</region>

<region>
end=76799
fade_out=74299
hikey=C3
hivel=42
lokey=B2
lovel=0
offset=2979
pitch_keycenter=C3
sample=Basses_bartok_PP_C4.opus
</region>

<region>
end=76799
fade_out=74299
hikey=C2
hivel=42
lokey=B1
lovel=0
pitch_keycenter=C2
sample=Basses_bartok_PP_C3.opus
</region>

<region>
end=76799
fade_out=74299
hivel=42
key=C1
lovel=0
offset=2584
sample=Basses_bartok_PP_C2.opus
</region>

<region>
end=76799
fade_out=74299
hikey=A#2
hivel=42
lokey=A2
lovel=0
offset=2207
pitch_keycenter=A#2
sample=Basses_bartok_PP_A#3.opus
</region>

<region>
end=76799
fade_out=74299
hikey=A#1
hivel=42
lokey=A1
lovel=0
pitch_keycenter=A#1
sample=Basses_bartok_PP_A#2.opus
</region>

<region>
end=76799
fade_out=74299
hikey=G#2
hivel=84
lokey=G2
lovel=43
offset=1632
pitch_keycenter=G#2
sample=Basses_bartok_MF_G#3.opus
</region>

<region>
end=76799
fade_out=74299
hikey=G#1
hivel=84
lokey=G1
lovel=43
offset=2661
pitch_keycenter=G#1
sample=Basses_bartok_MF_G#2.opus
</region>

<region>
end=151405
fade_out=148905
hikey=C4
hivel=84
lokey=F3
lovel=43
offset=85
pitch_keycenter=F#3
sample=Basses_bartok_MF_F#4.opus
</region>

<region>
end=76799
fade_out=74299
hikey=F#2
hivel=84
lokey=F2
lovel=43
offset=189
pitch_keycenter=F#2
sample=Basses_bartok_MF_F#3.opus
</region>

<region>
end=76799
fade_out=74299
hikey=F#1
hivel=84
lokey=F1
lovel=43
offset=2664
pitch_keycenter=F#1
sample=Basses_bartok_MF_F#2.opus
</region>

<region>
end=76799
fade_out=74299
hikey=E3
hivel=84
lokey=D#3
lovel=43
offset=1765
pitch_keycenter=E3
sample=Basses_bartok_MF_E4.opus
</region>

<region>
end=76799
fade_out=74299
hikey=E2
hivel=84
lokey=D#2
lovel=43
pitch_keycenter=E2
sample=Basses_bartok_MF_E3.opus
</region>

<region>
end=76799
fade_out=74299
hikey=E1
hivel=84
lokey=D#1
lovel=43
offset=2850
pitch_keycenter=E1
sample=Basses_bartok_MF_E2.opus
</region>

<region>
end=76508
fade_out=74008
hikey=D3
hivel=84
lokey=C#3
lovel=43
offset=2016
pitch_keycenter=D3
sample=Basses_bartok_MF_D4.opus
</region>

<region>
end=76799
fade_out=74299
hikey=D2
hivel=84
lokey=C#2
lovel=43
pitch_keycenter=D2
sample=Basses_bartok_MF_D3.opus
</region>

<region>
end=76799
fade_out=74299
hikey=D1
hivel=84
lokey=C#1
lovel=43
offset=2482
pitch_keycenter=D1
sample=Basses_bartok_MF_D2.opus
</region>

<region>
end=75981
fade_out=73481
hikey=C3
hivel=84
lokey=B2
lovel=43
offset=2024
pitch_keycenter=C3
sample=Basses_bartok_MF_C4.opus
</region>

<region>
end=76799
fade_out=74299
hikey=C2
hivel=84
lokey=B1
lovel=43
pitch_keycenter=C2
sample=Basses_bartok_MF_C3.opus
</region>

<region>
end=73989
fade_out=71489
hivel=84
key=C1
lovel=43
sample=Basses_bartok_MF_C2.opus
</region>

<region>
end=74930
fade_out=72430
hikey=A#2
hivel=84
lokey=A2
lovel=43
pitch_keycenter=A#2
sample=Basses_bartok_MF_A#3.opus
</region>

<region>
end=74106
fade_out=71606
hikey=A#1
hivel=84
lokey=A1
lovel=43
pitch_keycenter=A#1
sample=Basses_bartok_MF_A#2.opus
</region>

<region>
end=76799
fade_out=74299
hikey=G#2
hivel=127
lokey=G2
lovel=85
pitch_keycenter=G#2
sample=Basses_bartok_FF_G#3.opus
</region>

<region>
end=75127
fade_out=72627
hikey=G#1
hivel=127
lokey=G1
lovel=85
pitch_keycenter=G#1
sample=Basses_bartok_FF_G#2.opus
</region>

<region>
end=161592
fade_out=159092
hikey=C4
hivel=127
lokey=F3
lovel=85
offset=1450
pitch_keycenter=F#3
sample=Basses_bartok_FF_F#4.opus
</region>

<region>
end=76580
fade_out=74080
hikey=F#2
hivel=127
lokey=F2
lovel=85
pitch_keycenter=F#2
sample=Basses_bartok_FF_F#3.opus
</region>

<region>
end=74582
fade_out=72082
hikey=F#1
hivel=127
lokey=F1
lovel=85
pitch_keycenter=F#1
sample=Basses_bartok_FF_F#2.opus
</region>

<region>
end=76799
fade_out=74299
hikey=E3
hivel=127
lokey=D#3
lovel=85
pitch_keycenter=E3
sample=Basses_bartok_FF_E4.opus
</region>

<region>
end=75355
fade_out=72855
hikey=E2
hivel=127
lokey=D#2
lovel=85
pitch_keycenter=E2
sample=Basses_bartok_FF_E3.opus
</region>

<region>
end=76077
fade_out=73577
hikey=E1
hivel=127
lokey=D#1
lovel=85
pitch_keycenter=E1
sample=Basses_bartok_FF_E2.opus
</region>

<region>
end=76769
fade_out=74269
hikey=D3
hivel=127
lokey=C#3
lovel=85
pitch_keycenter=D3
sample=Basses_bartok_FF_D4.opus
</region>

<region>
end=75502
fade_out=73002
hikey=D2
hivel=127
lokey=C#2
lovel=85
pitch_keycenter=D2
sample=Basses_bartok_FF_D3.opus
</region>

<region>
end=75167
fade_out=72667
hikey=D1
hivel=127
lokey=C#1
lovel=85
pitch_keycenter=D1
sample=Basses_bartok_FF_D2.opus
</region>

<region>
end=75185
fade_out=72685
hikey=C3
hivel=127
lokey=B2
lovel=85
pitch_keycenter=C3
sample=Basses_bartok_FF_C4.opus
</region>

<region>
end=76799
fade_out=74299
hikey=C2
hivel=127
lokey=B1
lovel=85
pitch_keycenter=C2
sample=Basses_bartok_FF_C3.opus
</region>

<region>
end=74719
fade_out=72219
hivel=127
key=C1
lovel=85
sample=Basses_bartok_FF_C2.opus
</region>

<region>
end=75685
fade_out=73185
hikey=A#2
hivel=127
lokey=A2
lovel=85
pitch_keycenter=A#2
sample=Basses_bartok_FF_A#3.opus
</region>

<region>
end=76799
fade_out=74299
hikey=A#1
hivel=127
lokey=A1
lovel=85
pitch_keycenter=A#1
sample=Basses_bartok_FF_A#2.opus
</region>
</group>